<?xml version="1.0" standalone="no"?><!DOCTYPE svg PUBLIC "-//W3C//DTD SVG 1.1//EN" "http://www.w3.org/Graphics/SVG/1.1/DTD/svg11.dtd"><svg t="1549075620899" class="icon" style="" viewBox="0 0 1024 1024" version="1.1" xmlns="http://www.w3.org/2000/svg" p-id="4421" xmlns:xlink="http://www.w3.org/1999/xlink" width="200" height="200"><defs><style type="text/css"></style></defs><path d="M875.1 991.5H148.9c-39.9 0-72.4-32.5-72.4-72.4v-24.2c0-81.6 29.5-160.7 83-222.6 53.3-61.7 126.6-102 206.3-113.4 7.5-1.1 15 1.4 20.4 6.8L512 691.5l125.8-125.8c5.3-5.3 12.9-7.9 20.4-6.8 79.9 11.4 153.2 51.3 206.2 112.4 53.5 61.6 83 141 83 223.6v24.2c0.1 39.9-32.4 72.4-72.3 72.4zM360.9 608.3c-135.6 25.2-236.4 146.3-236.4 286.6v24.2c0 13.5 11 24.4 24.4 24.4h726.2c13.5 0 24.4-11 24.4-24.4v-24.2c0-142.6-98.7-261.3-236.4-286.6L529 742.4c-4.5 4.5-10.6 7-17 7s-12.5-2.5-17-7L360.9 608.3z" fill="#ffffff" p-id="4422"></path><path d="M512 539.4c-52.1 0-100.8-20-137.1-56.3s-56.3-85-56.3-137.1v-96.8h48V346c0 81.6 63.9 145.4 145.4 145.4S657.4 427.5 657.4 346v-72.6h48V346c0 52.1-20 100.8-56.3 137.1s-85 56.3-137.1 56.3z" fill="#ffffff" p-id="4423"></path><path d="M681.4 297.3c-13.3 0-24-10.7-24-24v-48.4c0-40.2-32.7-72.8-72.8-72.8-13.3 0-24-10.7-24-24V84.7l-106.8 21c-47.3 9.9-87.3 59-87.3 107.2v60.5c0 13.3-10.7 24-24 24s-24-10.7-24-24v-60.5c0-34.7 13.1-69.7 36.9-98.7 23.6-28.8 55.1-48.5 88.7-55.5 0.1 0 0.2 0 0.3-0.1L580 32c7-1.4 14.3 0.5 19.9 5 5.5 4.6 8.8 11.4 8.8 18.5v51c55.2 11.2 96.8 60 96.8 118.4v48.4c-0.1 13.3-10.8 24-24.1 24z" fill="#ffffff" p-id="4424"></path><path d="M681.4 345.8c-13.3 0-24-10.7-24-24 0-40.2-32.7-72.8-72.8-72.8H439.4c-13.3 0-24-10.7-24-24s10.7-24 24-24h145.2c66.6 0 120.8 54.2 120.8 120.8 0 13.2-10.7 24-24 24z" fill="#ffffff" p-id="4425"></path><path d="M439.4 248.9c-39.4 0-75.7-18.3-97.1-49-7.6-10.9-5-25.8 5.9-33.4 10.9-7.6 25.8-5 33.4 5.9 12.5 17.8 34.1 28.5 57.8 28.5 13.3 0 24 10.7 24 24s-10.8 24-24 24z" fill="#ffffff" p-id="4426"></path></svg>